<?xml version="1.0" encoding="utf-8"?>
<!-- Generator: Adobe Illustrator 24.3.0, SVG Export Plug-In . SVG Version: 6.00 Build 0)  -->
<svg version="1.1" id="Layer_1" xmlns="http://www.w3.org/2000/svg" xmlns:xlink="http://www.w3.org/1999/xlink" x="0px" y="0px"
	 viewBox="0 0 101 64" style="enable-background:new 0 0 101 64;" xml:space="preserve">
<style type="text/css">
	.st0{fill-rule:evenodd;clip-rule:evenodd;fill:#FF825C;}
	.st1{fill:none;stroke:#FF825C;stroke-miterlimit:10;}
</style>
<g id="Group_6" transform="translate(10475 -7417)">
	<path id="lingoapp-icon" class="st0" d="M-10475,7473.8c0-4,3.2-7.3,7.1-7.3c4,0,7.2,3.3,7.2,7.3c0,4-3.3,7.2-7.2,7.2
		C-10471.8,7481-10475,7477.8-10475,7473.8z M-10475,7449.1c0-4,3.2-7.3,7.1-7.3c4,0,7.2,3.3,7.2,7.3c0,4-3.3,7.2-7.2,7.2
		C-10471.8,7456.2-10475,7453-10475,7449.1z M-10474.8,7422.8c0.8-3.9,4.6-6.5,8.5-5.7c3.9,0.9,6.4,4.7,5.6,8.7
		c-0.8,3.9-4.6,6.4-8.5,5.6C-10473.2,7430.5-10475.7,7426.7-10474.8,7422.8L-10474.8,7422.8L-10474.8,7422.8z M-10448.8,7473.8
		c0-4,3.2-7.2,7.2-7.2c4,0,7.2,3.2,7.2,7.2c0,4-3.2,7.2-7.2,7.2c0,0-0.1,0-0.1,0C-10445.6,7481-10448.8,7477.8-10448.8,7473.8
		L-10448.8,7473.8z"/>
</g>
<polyline class="st1" points="7.2,10.5 7.2,56.8 33.4,56.8 "/>
</svg>
